<svg xmlns="http://www.w3.org/2000/svg" xml:space="preserve" width="128" height="128" data-id="lg_xryOXh28r8LJ1xyecb" data-version="1" viewBox="0 0 128 128"><g data-padding="20"><g transform="translate(54.068 54.681)scale(.17517)"><path fill="#ffd5c2" d="M56.7 333.2c-115.983 0-210-94.017-210-210v-140c0-115.983 94.017-210 210-210s210 94.017 210 210v140c0 115.983-94.017 210-210 210"/><path fill="none" stroke="#000" stroke-width="3" d="M26.982 56.25c-16.569 0-30-13.431-30-30v-20c0-16.569 13.431-30 30-30s30 13.431 30 30v20c0 16.569-13.431 30-30 30" paint-order="stroke" transform="matrix(6.66 0 0 6.72 -122.04 -56.17)"/><path fill="#251325" d="M172.396-120.18v-8.282H78.263l-129.05-11.342-.886 11.342h-14.63V58.321l-11.55 147.492 11.55 1.02v11.505H64.674l95.365 8.405.654-8.405h11.704V68.806l14.707-187.68Zm-216.139-10.81 28.914 2.53h-29.106Zm-25.795 329.336 3.234-41.37v41.656Zm234.234-311.018v322.85h-223.3v-330.48h223.3Zm7.7.694 6.391.57-6.391 81.56Z"/><path fill="#251325" d="M45.346-63.182a3.85 4.08 0 0 1-3.85 4.08h-80.85a3.85 4.08 0 0 1 0-8.16h80.85a3.85 4.08 0 0 1 3.85 4.08m0 24.48a3.85 4.08 0 0 1-3.85 4.08h-80.85a3.85 4.08 0 0 1 0-8.16h80.85a3.85 4.08 0 0 1 3.85 4.08m0 24.48a3.85 4.08 0 0 1-3.85 4.08h-80.85a3.85 4.08 0 1 1 0-8.16h80.85a3.85 4.08 0 0 1 3.85 4.08m103.95 40.8a3.85 4.08 0 0 1-3.85 4.08h-184.8a3.85 4.08 0 1 1 0-8.16h184.8a3.85 4.08 0 0 1 3.85 4.08m0 24.48a3.85 4.08 0 0 1-3.85 4.08h-184.8a3.85 4.08 0 1 1 0-8.16h184.8a3.85 4.08 0 0 1 3.85 4.08m0 24.48a3.85 4.08 0 0 1-3.85 4.08h-184.8a3.85 4.08 0 1 1 0-8.16h184.8a3.85 4.08 0 0 1 3.85 4.08m0 24.48a3.85 4.08 0 0 1-3.85 4.08h-184.8a3.85 4.08 0 0 1 0-8.16h184.8a3.85 4.08 0 0 1 3.85 4.08m0 28.56a3.85 4.08 0 0 1-3.85 4.08h-184.8a3.85 4.08 0 0 1 0-8.16h184.8a3.85 4.08 0 0 1 3.85 4.08m0 28.56a3.85 4.08 0 0 1-3.85 4.08h-184.8a3.85 4.08 0 0 1 0-8.16h184.8a3.85 4.08 0 0 1 3.85 4.08m-77 28.56a3.85 4.08 0 0 1-3.85 4.08h-107.8a3.85 4.08 0 0 1 0-8.16h107.8a3.85 4.08 0 0 1 3.85 4.08m30.801-287.558a22.253 23.582 0 1 0 0 47.165 22.253 23.582 0 1 0 0-47.164m34.611 70.746c-1.348-17.87-16.401-20.971-34.65-20.971s-33.264 3.1-34.612 20.971v20.971h12.359V-25.85s0-5.263 2.502-5.263v20.971h39.578v-20.97c2.464 0 2.464 5.262 2.464 5.262v15.708h12.397Zm-34.65 15.749-3.812-5.222 3.85-26.235 3.773 26.235Z"/><rect width="374.83" height="134.027" x="-352.254" y="-310.885" fill="#ffd5c2" rx="0" ry="0" transform="matrix(.93 0 0 .93 209.03 279.53)"/><g fill="#4866f0" stroke="#000" stroke-width="3" transform="matrix(.93 0 0 .93 209.15 216.093)"><path d="M-350.906-243.871H21.228" vector-effect="non-scaling-stroke"/>undefined
        undefined</g><g fill="#4866f0" stroke="#000" stroke-width="3" transform="matrix(.93 0 0 .93 208.91 342.927)"><path d="M-350.906-243.871H21.228" vector-effect="non-scaling-stroke"/>undefined
        undefined</g><rect width="350.123" height="73.45" x="-328.361" y="-263.525" fill="none" rx="0" ry="0" transform="translate(210.38 281.58)"/><path d="M-68.61 74.69H-80.8l-10.17-18.16h-5l-2.18-.49.94-6.5V48.5h6.86q2.27 0 3.65-.78 1.39-.78 2-2.19.62-1.42.62-3.34 0-2.37-.84-3.57-.85-1.2-2.23-1.64t-3.07-.44l-5.17-.03-2.27-3.68-.52-5.39h9.29q4.55 0 8.01 1.53 3.46 1.52 5.41 4.61t1.95 7.74q0 3.6-1.36 6.74-1.37 3.14-4.26 5.1-2.89 1.97-7.47 2.16l1.3-.52q1.26 0 2.34.23 1.07.23 1.98.85.91.61 1.62 1.75Zm-26.75 0h-10.3V27.44h10.3Zm60.71 0h-29.54V27.44h28.96v9.33h-21.94l3.15-2.41v13.55l-3.15-2.04h19.76v9.29h-19.43l2.82-2.01v14.59l-3.15-2.44h22.52Zm22.91.66q-5.43 0-9.77-1.7-4.34-1.71-6.78-5.28-2.43-3.58-2.24-9.14h10.08q.06 2.34.97 4t2.86 2.52 5.07.86q2.54 0 4.16-.52 1.63-.52 2.39-1.54.76-1.03.76-2.52 0-1.66-1.04-2.75t-3.26-2.03q-2.23-.94-5.74-2.14-4.35-1.56-7.62-3.51t-5.05-4.78q-1.79-2.83-1.79-6.96 0-6.43 4.47-9.79 4.47-3.37 12.14-3.37 5.23 0 8.74 1.64t5.38 4.89 2.19 8.06H-5.7q-.06-1.88-.8-3.18-.73-1.3-2.12-1.98-1.4-.69-3.48-.69-3.15 0-4.81 1.03-1.66 1.02-1.66 3.23 0 1.66.76 2.81.77 1.16 2.65 2.16 1.89 1.01 5.24 2.25 3.12 1.13 5.99 2.22 2.88 1.09 5.15 2.57 2.28 1.48 3.59 3.72 1.32 2.24 1.32 5.72.03 7.09-4.84 10.65-4.88 3.55-13.03 3.55m42.09-.01q-5.59 0-9.73-2.22-4.14-2.23-6.44-6.44-2.29-4.21-2.29-10.12V27.44h10.44v27.92q0 2.73.5 4.74.5 2.02 1.53 3.37 1.02 1.34 2.53 1.99t3.53.65q1.98 0 3.46-.65t2.47-1.98 1.49-3.36q.51-2.03.51-4.76V27.44h10.43v29.12q0 5.82-2.27 10.04-2.28 4.23-6.41 6.49-4.12 2.25-9.75 2.25m36.83-.65H57.07V27.44h17.16l5.98 26.19 1.66 8.1H82l1.69-8.1 5.88-26.19h17.22v47.25h-10.1V50.81l1-15.28h-.32l-4.39 15.18-6.82 23.98H77.8l-6.92-23.98-4.39-15.18h-.32l1.01 15.28Zm55.4 0h-10.95l14.2-47.25h15.83l14.2 47.25h-10.95l-4.26-15.27 5.72 4.29h-23.3l.58-8.19h20.44l-3.47 3.77-4.29-15.37-2.38-9.66h-.52l-2.34 9.66Zm51.39 0h-10.33V40.7q0-1.95.71-2.83.72-.88 2.18-1.1h-14.56v-9.33h33.6v9.33h-11.6Zm46.83 0h-29.54V27.44h28.96v9.33h-21.94l3.15-2.41v13.55l-3.15-2.04h19.76v9.29h-19.43l2.82-2.01v14.59l-3.15-2.44h22.52Z"/><rect width="100.139" height="24.86" x="-203.369" y="-239.23" fill="none" rx="0" ry="0" transform="translate(210.37 506.29)"/><path d="M10.8 270.14h9.71v1.74h-7.57v5.23h6.13v1.67h-6.13v5.38h7.57v1.74H10.8Zm21.38 1.44-.52 1.01q-.1.17-.21.25t-.28.08q-.19 0-.44-.18-.24-.19-.62-.42-.38-.22-.92-.41-.53-.19-1.29-.19-.71 0-1.26.2-.55.19-.92.52t-.56.77q-.18.45-.18.97 0 .66.32 1.09.32.44.86.74.53.31 1.21.54.67.22 1.38.46.71.25 1.39.55t1.21.76q.53.47.86 1.14.32.67.32 1.65 0 1.03-.35 1.94t-1.03 1.58q-.67.67-1.66 1.05-.98.39-2.24.39-1.53 0-2.79-.56-1.26-.55-2.15-1.5l.62-1.01q.09-.12.21-.21.13-.08.28-.08.24 0 .53.25.3.25.74.54.45.3 1.08.55.64.25 1.55.25.76 0 1.35-.21.6-.21 1.01-.59t.63-.91.22-1.18q0-.71-.32-1.17-.33-.45-.86-.76-.52-.31-1.2-.52-.68-.22-1.39-.44-.71-.23-1.38-.53-.68-.29-1.21-.77-.53-.47-.85-1.18t-.32-1.75q0-.84.32-1.62t.94-1.39q.62-.6 1.52-.96.91-.37 2.09-.37 1.32 0 2.41.42t1.9 1.21m1.45-1.44h12.35v1.79h-5.1v13.97h-2.13v-13.97h-5.12Zm11.67 14.55q0-.28.11-.54.1-.25.28-.44.19-.18.44-.29t.54-.11q.28 0 .54.11.25.11.44.29.18.19.29.44.1.26.1.54 0 .3-.1.55-.11.24-.29.43-.19.19-.44.29-.26.11-.54.11-.29 0-.54-.11-.25-.1-.44-.29-.18-.19-.28-.43-.11-.25-.11-.55m14.56-14.73q1 0 1.87.3t1.5.86q.63.57.99 1.38.37.82.37 1.85 0 .88-.27 1.63-.26.75-.71 1.43-.45.69-1.04 1.34-.59.64-1.25 1.31l-4.15 4.25q.44-.12.89-.2.45-.07.87-.07h5.28q.32 0 .51.19t.19.48v1.19H54.39v-.67q0-.21.08-.43t.27-.41l5.05-5.07q.63-.63 1.14-1.22.52-.59.89-1.19.37-.59.57-1.2.19-.61.19-1.3 0-.7-.22-1.22t-.6-.86q-.39-.34-.9-.51-.52-.17-1.11-.17-.6 0-1.1.17-.51.18-.9.49t-.66.74-.38.95q-.09.32-.26.46-.18.14-.47.14h-.11q-.06-.01-.14-.02l-1.02-.17q.15-1.08.59-1.91t1.12-1.39 1.55-.86q.87-.29 1.89-.29m18.25 8.06q0 2.06-.45 3.58-.45 1.51-1.22 2.5t-1.82 1.47q-1.05.49-2.25.49-1.21 0-2.25-.49-1.03-.48-1.8-1.47t-1.21-2.5q-.44-1.52-.44-3.58 0-2.07.44-3.59t1.21-2.51q.77-1 1.8-1.48 1.04-.49 2.25-.49 1.2 0 2.25.49 1.05.48 1.82 1.48.77.99 1.22 2.51t.45 3.59m-2.04 0q0-1.81-.3-3.04-.3-1.22-.82-1.97-.51-.75-1.18-1.07-.67-.33-1.4-.33-.72 0-1.39.33-.67.32-1.18 1.07t-.81 1.97q-.3 1.23-.3 3.04 0 1.8.3 3.02t.81 1.97 1.18 1.07q.67.33 1.39.33.73 0 1.4-.33.67-.32 1.18-1.07.52-.75.82-1.97t.3-3.02m9.31-8.06q1 0 1.87.3t1.5.86q.63.57.99 1.38.37.82.37 1.85 0 .88-.27 1.63-.26.75-.71 1.43-.45.69-1.04 1.34-.59.64-1.25 1.31l-4.15 4.25q.44-.12.89-.2.45-.07.87-.07h5.28q.32 0 .51.19t.19.48v1.19H79.91v-.67q0-.21.08-.43t.27-.41l5.05-5.07q.63-.63 1.14-1.22.52-.59.89-1.19.37-.59.57-1.2.19-.61.19-1.3 0-.7-.22-1.22t-.6-.86q-.39-.34-.9-.51-.52-.17-1.11-.17-.6 0-1.1.17-.51.18-.9.49t-.66.74-.38.95q-.09.32-.26.46-.18.14-.47.14h-.11q-.06-.01-.14-.02l-1.02-.17q.15-1.08.59-1.91t1.12-1.39 1.55-.86q.87-.29 1.89-.29m16.08.18v10.07h2.39v1.13q0 .17-.11.29-.1.12-.32.12h-1.96v4.15h-1.73v-4.15h-6.98q-.22 0-.38-.12-.16-.13-.21-.32l-.19-1 7.66-10.17Zm-1.73 10.07v-6.5q0-.28.02-.61.01-.33.07-.68l-5.73 7.79Z"/></g><path fill="transparent" stroke="transparent" stroke-width=".184" d="M25.375 12.5h77.25v103h-77.25z"/></g></svg>